<svg width="274" height="47" viewBox="0 0 274 47" fill="none" xmlns="http://www.w3.org/2000/svg">
<g clip-path="url(#clip0_201_2005)">
<path d="M264.544 0H256.933V27.5134H264.544V0Z" fill="#E31F24"/>
<path d="M274.01 0H266.389V27.5134H274.01V0Z" fill="#E31F24"/>
<path fill-rule="evenodd" clip-rule="evenodd" d="M37.8354 10.3858H44.8945C45.0364 10.382 45.1778 10.4066 45.3103 10.4581C45.4428 10.5097 45.5638 10.5872 45.6664 10.6862C45.769 10.7851 45.8512 10.9036 45.9081 11.0348C45.965 11.1659 45.9956 11.3072 45.998 11.4503V20.7621C45.9956 20.9057 45.9651 21.0473 45.9083 21.179C45.8515 21.3107 45.7695 21.4298 45.667 21.5296C45.5645 21.6293 45.4435 21.7077 45.311 21.7603C45.1784 21.8129 45.0369 21.8387 44.8945 21.8362H37.8354C37.5476 21.8388 37.2701 21.728 37.0621 21.5274C36.8542 21.3267 36.7322 21.0521 36.7223 20.7621V11.4503C36.7323 11.1612 36.8545 10.8876 37.0627 10.6884C37.271 10.4893 37.5485 10.3806 37.8354 10.3858ZM30.4434 4.72781H52.3246C52.608 4.72016 52.8902 4.76937 53.1547 4.87258C53.4191 4.97579 53.6606 5.13094 53.8651 5.32902C54.0695 5.52709 54.2329 5.76415 54.3457 6.02642C54.4585 6.28868 54.5185 6.57093 54.5222 6.85677V25.3652C54.5173 25.6503 54.4564 25.9315 54.343 26.1926C54.2296 26.4538 54.0661 26.6897 53.8617 26.8868C53.6574 27.0838 53.4163 27.2381 53.1525 27.3407C52.8887 27.4433 52.6073 27.4922 52.3246 27.4846H30.4434C29.8722 27.4975 29.3192 27.2817 28.9055 26.8845C28.4919 26.4872 28.2512 25.9409 28.2362 25.3652V6.85677C28.2512 6.2802 28.4916 5.73295 28.905 5.3342C29.3184 4.93545 29.8713 4.7175 30.4434 4.72781Z" fill="#E31F24"/>
<path fill-rule="evenodd" clip-rule="evenodd" d="M117.597 4.72781H137.176C138.812 4.80453 140.344 5.58131 140.344 8.16099V16.0343C140.344 18.4317 139.393 19.688 136.919 19.688H122.725V21.8457H140.315V27.5134H117.597C115.942 27.5134 114.191 25.7009 114.191 23.3801V8.46786C114.171 7.99676 114.243 7.52622 114.403 7.08317C114.563 6.64013 114.808 6.23327 115.125 5.88588C115.441 5.5385 115.822 5.2574 116.247 5.05869C116.671 4.85997 117.13 4.74753 117.597 4.72781ZM122.725 10.3571H130.602C130.931 10.3715 131.243 10.5111 131.474 10.7477C131.705 10.9843 131.839 11.3005 131.848 11.6325V12.8025C131.837 13.1319 131.701 13.4445 131.47 13.6776C131.239 13.9107 130.929 14.0469 130.602 14.0588H122.725V10.3571Z" fill="#E31F24"/>
<path fill-rule="evenodd" clip-rule="evenodd" d="M65.1964 4.72781V8.20894C66.8803 6.78005 68.8496 4.67986 71.2185 4.72781H79.5143C81.8356 4.72781 83.4434 6.31973 83.5386 9.43644V27.5134H75.0429V12.9655C75.0429 11.5174 74.2819 10.3858 72.7977 10.3858H69.7058C67.3179 10.3858 65.1964 11.5654 65.1964 14.0396V27.5134H56.7008V4.72781H65.1964Z" fill="#E31F24"/>
<path fill-rule="evenodd" clip-rule="evenodd" d="M3.80542 4.72781H26.2289V10.3858H10.6362C9.31377 10.2899 8.52415 10.7982 8.50512 11.8339V20.273C8.69539 21.232 9.07593 21.8937 10.2271 21.8266H26.2289V27.4942H3.80542C1.04649 27.4942 0 25.1255 0 22.7568V9.1008C0 6.3485 1.46509 4.72781 3.80542 4.72781Z" fill="#E31F24"/>
<path fill-rule="evenodd" clip-rule="evenodd" d="M146.642 4.72781H169.084V10.3858H153.492C152.169 10.2899 151.38 10.7982 151.361 11.8339V20.273C151.551 21.232 151.932 21.8937 153.083 21.8266H169.084V27.4942H146.642C143.893 27.4942 142.837 25.1255 142.837 22.7568V9.1008C142.837 6.3485 144.302 4.72781 146.642 4.72781Z" fill="#E31F24"/>
<path fill-rule="evenodd" clip-rule="evenodd" d="M93.6705 4.72781V8.20894C95.3449 6.78005 97.3142 4.67986 99.6831 4.72781H107.979C110.3 4.72781 111.908 6.31973 112.003 9.43644V27.5134H103.508V12.9655C103.508 11.5174 102.756 10.3858 101.262 10.3858H98.1704C95.7825 10.3858 93.6705 11.5654 93.6705 14.0396V27.5134H85.2034V4.72781H93.6705Z" fill="#E31F24"/>
<path fill-rule="evenodd" clip-rule="evenodd" d="M174.507 0.0287704H182.118V4.75658H185.781V10.4242H182.118V27.5134H174.507V10.4242H170.835V4.75658H174.507V0.0287704Z" fill="#E31F24"/>
<path fill-rule="evenodd" clip-rule="evenodd" d="M203.21 4.79494V21.3087C203.21 22.0759 202.924 22.565 201.868 22.7568H197.444C197.239 22.7855 197.029 22.7696 196.83 22.71C196.631 22.6505 196.447 22.5487 196.291 22.4116C196.134 22.2744 196.008 22.1051 195.921 21.9148C195.835 21.7246 195.79 21.518 195.789 21.3087V4.79494H187.836V23.9747C187.836 25.6913 189.662 27.5038 191.936 27.5038H203.59C204.498 27.4345 205.356 27.0575 206.025 26.4341C206.693 25.8108 207.133 24.9778 207.272 24.0706C207.413 24.9786 207.854 25.8118 208.525 26.435C209.195 27.0582 210.054 27.4348 210.963 27.5038H222.617C224.901 27.5038 226.718 25.6913 226.718 23.9747V4.79494H218.812V21.3087C218.811 21.517 218.766 21.7228 218.68 21.9122C218.594 22.1017 218.469 22.2705 218.313 22.4075C218.158 22.5445 217.975 22.6465 217.777 22.7067C217.579 22.767 217.371 22.784 217.166 22.7568H212.733C211.677 22.565 211.391 22.0759 211.391 21.3087V4.79494H203.21Z" fill="#E31F24"/>
<path fill-rule="evenodd" clip-rule="evenodd" d="M232.235 4.72781H251.824C253.451 4.80453 254.982 5.58131 254.982 8.16099V16.0343C254.982 18.4317 254.031 19.688 251.558 19.688H237.363V21.8457H254.963V27.5134H232.235C230.58 27.5134 228.83 25.7009 228.83 23.3801V8.46786C228.809 7.99676 228.881 7.52622 229.041 7.08317C229.202 6.64013 229.447 6.23327 229.763 5.88588C230.079 5.5385 230.461 5.2574 230.885 5.05869C231.309 4.85997 231.768 4.74753 232.235 4.72781ZM237.363 10.3571H245.25C245.578 10.3737 245.889 10.514 246.12 10.7501C246.35 10.9863 246.485 11.3012 246.496 11.6325V12.8025C246.482 13.1311 246.347 13.4426 246.116 13.6752C245.885 13.9078 245.576 14.0447 245.25 14.0588H237.363V10.3571Z" fill="#E31F24"/>
<path d="M136.158 39.1267C135.733 38.7584 135.251 38.4635 134.731 38.254C134.226 38.0619 133.691 37.9644 133.152 37.9663C132.667 37.9463 132.184 38.0289 131.734 38.209C131.283 38.3891 130.875 38.6625 130.536 39.0116C129.895 39.7495 129.541 40.6969 129.541 41.6776C129.541 42.6584 129.895 43.6057 130.536 44.3436C130.85 44.686 131.233 44.9565 131.66 45.1369C132.086 45.3172 132.547 45.4031 133.009 45.3889C133.576 45.3915 134.138 45.2841 134.664 45.0724C135.218 44.8406 135.73 44.5164 136.177 44.1134V45.9355C135.752 46.2416 135.279 46.4748 134.779 46.626C133.555 46.9759 132.252 46.9255 131.059 46.4821C130.431 46.2392 129.86 45.8687 129.38 45.3935C128.9 44.9184 128.523 44.3488 128.271 43.7203C127.764 42.4032 127.764 40.9425 128.271 39.6254C128.526 38.995 128.906 38.4235 129.387 37.9454C129.867 37.4673 130.439 37.0927 131.068 36.8443C131.717 36.5907 132.408 36.4637 133.104 36.4703C133.665 36.469 134.223 36.553 134.76 36.7196C135.301 36.8992 135.814 37.1577 136.282 37.4868L136.158 39.1267ZM150.067 41.6872C150.075 40.7065 149.699 39.7622 149.02 39.0596C148.695 38.7198 148.304 38.4496 147.873 38.265C147.441 38.0805 146.978 37.9854 146.509 37.9855C146.039 37.982 145.573 38.0733 145.139 38.254C144.703 38.4432 144.309 38.7169 143.978 39.0596C143.631 39.4057 143.359 39.8203 143.179 40.2775C143.001 40.7323 142.91 41.2173 142.913 41.7064C142.904 42.2022 142.995 42.6946 143.179 43.1545C143.358 43.6019 143.623 44.0093 143.959 44.3532C144.283 44.6995 144.675 44.9738 145.11 45.1587C145.547 45.3428 146.016 45.4374 146.49 45.4369C146.962 45.4383 147.43 45.343 147.865 45.1567C148.3 44.9704 148.693 44.6971 149.02 44.3532C149.356 44.0093 149.621 43.6019 149.8 43.1545C149.986 42.6884 150.077 42.1894 150.067 41.6872ZM151.732 41.6872C151.74 42.3721 151.607 43.0512 151.342 43.6819C151.075 44.3117 150.687 44.882 150.2 45.3601C149.707 45.8421 149.125 46.2232 148.488 46.4821C147.854 46.7438 147.175 46.8774 146.49 46.8753C145.799 46.8767 145.114 46.7432 144.473 46.4821C143.841 46.2182 143.263 45.8377 142.77 45.3601C142.286 44.88 141.901 44.3076 141.639 43.6761C141.376 43.0447 141.241 42.367 141.241 41.6824C141.241 40.9978 141.376 40.3201 141.639 39.6887C141.901 39.0573 142.286 38.4848 142.77 38.0047C143.262 37.5248 143.84 37.144 144.473 36.8827C145.116 36.6294 145.8 36.4994 146.49 36.4991C147.177 36.4976 147.858 36.6278 148.497 36.8827C149.132 37.1419 149.71 37.5229 150.2 38.0047C150.689 38.488 151.077 39.0651 151.342 39.7021C151.606 40.3297 151.738 41.0055 151.732 41.6872ZM157.097 46.6164V36.3361L163.329 42.3777C163.5 42.5503 163.671 42.7325 163.842 42.9243C164.014 43.1161 164.204 43.3367 164.394 43.586V36.7292H165.869V46.9904L159.514 40.8337C159.337 40.6697 159.172 40.4934 159.019 40.3063C158.857 40.123 158.704 39.931 158.562 39.7309V46.6068L157.097 46.6164ZM171.653 46.6164V36.3361L177.884 42.3777L178.398 42.9243C178.593 43.1352 178.778 43.356 178.95 43.586V36.7292H180.425V46.9904L174.098 40.8433C173.924 40.6768 173.759 40.5007 173.603 40.3159C173.441 40.1326 173.288 39.9405 173.147 39.7405V46.6164H171.653ZM186.209 46.6164V36.7292H191.689V38.091H187.807V40.5652H191.689V41.9845H187.807V45.1779H191.689V46.6164H186.209ZM204.922 39.1267C204.497 38.7584 204.015 38.4635 203.495 38.254C202.987 38.0609 202.449 37.9634 201.906 37.9663C201.422 37.948 200.939 38.0315 200.489 38.2115C200.039 38.3915 199.63 38.664 199.29 39.0116C198.649 39.7495 198.296 40.6969 198.296 41.6776C198.296 42.6584 198.649 43.6057 199.29 44.3436C199.606 44.6858 199.991 44.956 200.42 45.1363C200.848 45.3165 201.309 45.4026 201.773 45.3889C202.33 45.3879 202.882 45.2805 203.4 45.0724C203.954 44.8406 204.465 44.5164 204.913 44.1134V45.9355C204.487 46.2416 204.015 46.4748 203.514 46.626C202.287 46.976 200.982 46.9257 199.785 46.4821C199.156 46.2411 198.586 45.8685 198.11 45.3889C197.631 44.9162 197.255 44.3479 197.007 43.7203C196.5 42.4032 196.5 40.9425 197.007 39.6254C197.26 38.9951 197.639 38.4239 198.12 37.9472C198.595 37.4745 199.162 37.1056 199.785 36.8635C200.97 36.4086 202.272 36.3647 203.485 36.7388C204.024 36.9185 204.534 37.177 204.998 37.506L204.922 39.1267ZM213.608 38.091V46.6164H212.01V38.091H209.403V36.7292H216.205V38.091H213.608ZM220.981 46.6164V36.7292H222.617V46.6164H220.981ZM236.802 41.6872C236.802 41.2005 236.709 40.7184 236.526 40.2679C236.347 39.8175 236.082 39.4069 235.746 39.0596C235.421 38.7168 235.029 38.4447 234.595 38.26C234.162 38.0753 233.696 37.9819 233.225 37.9855C232.752 37.9817 232.283 38.073 231.845 38.254C231.411 38.4458 231.017 38.7192 230.685 39.0596C230.347 39.4018 230.082 39.8096 229.905 40.2583C229.726 40.7131 229.636 41.1981 229.638 41.6872C229.634 42.1734 229.724 42.6556 229.905 43.1065C230.084 43.554 230.349 43.9614 230.685 44.3052C231.012 44.6517 231.407 44.926 231.845 45.1108C232.282 45.2956 232.751 45.3902 233.225 45.3889C233.692 45.3894 234.155 45.2949 234.585 45.1108C235.022 44.9236 235.417 44.6497 235.746 44.3052C236.082 43.9614 236.347 43.554 236.526 43.1065C236.709 42.656 236.802 42.1739 236.802 41.6872ZM238.467 41.6872C238.47 42.3717 238.337 43.0498 238.077 43.6819C237.795 44.3154 237.391 44.8859 236.888 45.3601C236.396 45.84 235.818 46.2208 235.185 46.4821C234.55 46.7421 233.872 46.8756 233.187 46.8753C231.797 46.8854 230.46 46.3407 229.467 45.3601C228.978 44.888 228.589 44.3202 228.325 43.6915C227.806 42.41 227.806 40.974 228.325 39.6925C228.586 39.0565 228.975 38.4819 229.467 38.0047C229.96 37.5219 230.542 37.1408 231.179 36.8827C232.473 36.3711 233.91 36.3711 235.204 36.8827C235.832 37.143 236.404 37.5241 236.888 38.0047C237.38 38.4876 237.771 39.0647 238.039 39.7021C238.311 40.3284 238.457 41.0034 238.467 41.6872ZM243.823 46.6164V36.3361L250.054 42.3777L250.578 42.9243C250.749 43.1161 250.93 43.3367 251.12 43.586V36.7292H252.594V46.9904L246.239 40.8337C245.889 40.4967 245.57 40.1275 245.288 39.7309V46.6068L243.823 46.6164Z" fill="#2B2929"/>
<path d="M65.7672 40.9392H66.0526C66.6303 40.9956 67.2123 40.8928 67.7365 40.6419C67.885 40.5132 68 40.3497 68.0713 40.1658C68.1426 39.9819 68.1681 39.7832 68.1456 39.587C68.1688 39.3731 68.1402 39.1566 68.0624 38.9562C67.9845 38.7558 67.8596 38.5774 67.6985 38.4362C67.1941 38.1649 66.622 38.0482 66.0526 38.1006H65.7672V40.9392ZM65.6435 42.1955V46.626H64.1689V36.7292H66.3951C66.9024 36.7146 67.4096 36.7564 67.9078 36.8539C68.2508 36.9256 68.5749 37.0694 68.8591 37.2759C69.1733 37.5276 69.4162 37.8584 69.5631 38.2349C69.7353 38.6271 69.8197 39.0527 69.8105 39.4815C69.8489 40.1508 69.6462 40.8114 69.2397 41.342C68.7982 41.8135 68.1973 42.101 67.5558 42.1475L70.9331 46.6452H69.1065L65.8433 42.1955H65.6435ZM75.3949 46.626V36.7292H77.0598V46.6164L75.3949 46.626ZM88.2573 41.5625H92.1388C92.1388 41.6297 92.1388 41.716 92.1388 41.8406C92.1388 42.1667 92.1388 42.3777 92.1388 42.4928C92.1729 43.0865 92.0848 43.6809 91.8802 44.2387C91.6755 44.7965 91.3587 45.3056 90.9496 45.7341C90.0318 46.5486 88.8307 46.9625 87.6104 46.8849C86.8782 46.8992 86.1497 46.779 85.4603 46.5301C84.838 46.2924 84.2735 45.9229 83.8049 45.4464C83.3462 44.9629 82.993 44.388 82.768 43.7586C82.2601 42.4284 82.2601 40.9556 82.768 39.6254C83.0206 38.9953 83.4033 38.4265 83.8906 37.9567C84.3833 37.4737 84.974 37.104 85.622 36.8731C86.2813 36.6209 86.9813 36.4941 87.6865 36.4991C88.4009 36.4869 89.1092 36.6343 89.7604 36.9306C90.3748 37.24 90.9116 37.686 91.3302 38.2349L90.1695 39.1171C89.8666 38.7458 89.4823 38.4503 89.0469 38.254C88.61 38.0578 88.1361 37.9597 87.6579 37.9663C87.1761 37.9487 86.6959 38.0316 86.2473 38.2099C85.7987 38.3881 85.3915 38.6578 85.0512 39.002C84.7113 39.3553 84.4465 39.7749 84.2731 40.235C84.0997 40.695 84.0213 41.1859 84.0428 41.6776C84.0211 42.1751 84.0993 42.6719 84.2726 43.1382C84.4458 43.6045 84.7107 44.0308 85.0512 44.3916C85.3908 44.7402 85.799 45.0133 86.2496 45.1933C86.7001 45.3734 87.1831 45.4563 87.6674 45.4369C88.4366 45.483 89.1975 45.2556 89.8175 44.7943C90.0748 44.586 90.2797 44.3193 90.4152 44.016C90.5508 43.7126 90.6133 43.3813 90.5976 43.049V42.9051H88.2763L88.2573 41.5625ZM97.3713 46.626V36.7292H98.9695V40.3734H103.793V36.7292H105.391V46.6164H103.793V41.8215H98.9695V46.6164L97.3713 46.626ZM114.343 38.1006V46.626H112.755V38.091H110.167V36.7292H116.96V38.091L114.343 38.1006Z" fill="#2B2929"/>
<path d="M25.6105 38.091V46.6164H24.0122V38.091H21.4055V36.7292H28.1982V38.091H25.6105ZM32.955 46.6164V36.7292H34.5533V40.3734H39.3766V36.7292H40.9749V46.6164H39.3766V41.8215H34.5533V46.6164H32.955ZM46.7591 46.6164V36.7292H52.2294V38.091H48.3479V40.5652H52.2294V41.9845H48.3479V45.1779H52.2294V46.6164H46.7591Z" fill="#2B2929"/>
</g>
<defs>
<clipPath id="clip0_201_2005">
<rect width="274" height="47" fill="white"/>
</clipPath>
</defs>
</svg>
