<svg width="236" height="41" viewBox="0 0 236 41" fill="none" xmlns="http://www.w3.org/2000/svg">
<g clip-path="url(#clip0_222_1916)">
<path d="M227.855 0H221.3V24.001H227.855V0Z" fill="white"/>
<path d="M236.008 0H229.445V24.001H236.008V0Z" fill="white"/>
<path fill-rule="evenodd" clip-rule="evenodd" d="M32.5882 9.06H38.6682C38.7905 9.05666 38.9122 9.0781 39.0263 9.12306C39.1405 9.16803 39.2447 9.23564 39.3331 9.32198C39.4215 9.40832 39.4922 9.51169 39.5413 9.6261C39.5903 9.74052 39.6166 9.86372 39.6187 9.98858V18.1116C39.6166 18.2369 39.5903 18.3605 39.5414 18.4753C39.4925 18.5902 39.4219 18.6941 39.3336 18.7811C39.2453 18.8681 39.1411 18.9365 39.027 18.9824C38.9128 19.0283 38.7909 19.0508 38.6682 19.0486H32.5882C32.3402 19.0509 32.1012 18.9542 31.9221 18.7792C31.743 18.6042 31.638 18.3646 31.6294 18.1116V9.98858C31.638 9.73635 31.7433 9.49766 31.9226 9.32396C32.102 9.15026 32.341 9.05546 32.5882 9.06ZM26.2213 4.12427H45.0679C45.312 4.1176 45.5551 4.16053 45.7828 4.25056C46.0106 4.34059 46.2186 4.47593 46.3947 4.64873C46.5708 4.82152 46.7115 5.02831 46.8087 5.2571C46.9059 5.48588 46.9575 5.7321 46.9607 5.98144V22.1271C46.9565 22.3758 46.904 22.6211 46.8064 22.8489C46.7087 23.0767 46.5678 23.2825 46.3918 23.4544C46.2158 23.6263 46.0082 23.7609 45.781 23.8504C45.5537 23.9399 45.3114 23.9826 45.0679 23.9759H26.2213C25.7293 23.9872 25.253 23.7989 24.8967 23.4524C24.5404 23.1059 24.3331 22.6293 24.3203 22.1271V5.98144C24.3331 5.47848 24.5402 5.00109 24.8962 4.65325C25.2523 4.3054 25.7286 4.11527 26.2213 4.12427Z" fill="white"/>
<path fill-rule="evenodd" clip-rule="evenodd" d="M101.288 4.12427H118.152C119.561 4.19119 120.88 4.86881 120.88 7.11917V13.9874C120.88 16.0788 120.061 17.1747 117.93 17.1747H105.705V19.0569H120.856V24.001H101.288C99.8622 24.001 98.3545 22.4199 98.3545 20.3954V7.38687C98.3369 6.9759 98.3989 6.56543 98.5368 6.17895C98.6748 5.79246 98.8861 5.43754 99.1585 5.1345C99.431 4.83146 99.7593 4.58625 100.125 4.4129C100.49 4.23956 100.885 4.14147 101.288 4.12427ZM105.705 9.0349H112.489C112.773 9.04747 113.041 9.16923 113.24 9.37566C113.44 9.5821 113.555 9.85789 113.563 10.1475V11.1681C113.553 11.4555 113.436 11.7282 113.237 11.9315C113.038 12.1349 112.771 12.2537 112.489 12.264H105.705V9.0349Z" fill="white"/>
<path fill-rule="evenodd" clip-rule="evenodd" d="M56.1545 4.12427V7.161C57.6049 5.91452 59.3011 4.08244 61.3414 4.12427H68.4868C70.4861 4.12427 71.8709 5.51297 71.9529 8.2318V24.001H64.6355V11.3104C64.6355 10.0471 63.98 9.06 62.7017 9.06H60.0386C57.9818 9.06 56.1545 10.089 56.1545 12.2473V24.001H48.8372V4.12427H56.1545Z" fill="white"/>
<path fill-rule="evenodd" clip-rule="evenodd" d="M3.27766 4.12427H22.5913V9.06H9.16107C8.02208 8.97634 7.34197 9.41972 7.32558 10.3232V17.685C7.48946 18.5215 7.81723 19.0988 8.80872 19.0402H22.5913V23.9843H3.27766C0.901357 23.9843 0 21.918 0 19.8517V7.939C0 5.53806 1.2619 4.12427 3.27766 4.12427Z" fill="white"/>
<path fill-rule="evenodd" clip-rule="evenodd" d="M126.305 4.12427H145.635V9.06H132.205C131.066 8.97634 130.385 9.41972 130.369 10.3232V17.685C130.533 18.5215 130.861 19.0988 131.852 19.0402H145.635V23.9843H126.305C123.937 23.9843 123.027 21.918 123.027 19.8517V7.939C123.027 5.53806 124.289 4.12427 126.305 4.12427Z" fill="white"/>
<path fill-rule="evenodd" clip-rule="evenodd" d="M80.6797 4.12427V7.161C82.1219 5.91452 83.8181 4.08244 85.8584 4.12427H93.0037C95.0031 4.12427 96.3879 5.51297 96.4699 8.2318V24.001H89.1525V11.3104C89.1525 10.0471 88.5051 9.06 87.2186 9.06H84.5555C82.4988 9.06 80.6797 10.089 80.6797 12.2473V24.001H73.3869V4.12427H80.6797Z" fill="white"/>
<path fill-rule="evenodd" clip-rule="evenodd" d="M150.305 0.0250854H156.861V4.14935H160.016V9.09344H156.861V24.001H150.305V9.09344H147.143V4.14935H150.305V0.0250854Z" fill="white"/>
<path fill-rule="evenodd" clip-rule="evenodd" d="M175.027 4.18283V18.5885C175.027 19.2577 174.781 19.6844 173.872 19.8517H170.062C169.885 19.8767 169.704 19.8628 169.533 19.8109C169.361 19.7589 169.203 19.6702 169.068 19.5505C168.933 19.4309 168.824 19.2832 168.75 19.1172C168.675 18.9513 168.636 18.771 168.636 18.5885V4.18283H161.786V20.9141C161.786 22.4116 163.359 23.9927 165.317 23.9927H175.355C176.137 23.9322 176.876 23.6033 177.452 23.0596C178.028 22.5158 178.406 21.7891 178.526 20.9978C178.648 21.7898 179.028 22.5167 179.605 23.0603C180.182 23.604 180.922 23.9325 181.706 23.9927H191.743C193.71 23.9927 195.275 22.4116 195.275 20.9141V4.18283H188.466V18.5885C188.465 18.7702 188.426 18.9497 188.352 19.1149C188.278 19.2802 188.171 19.4275 188.036 19.547C187.902 19.6665 187.745 19.7555 187.574 19.808C187.404 19.8605 187.225 19.8754 187.048 19.8517H183.23C182.32 19.6844 182.074 19.2577 182.074 18.5885V4.18283H175.027Z" fill="white"/>
<path fill-rule="evenodd" clip-rule="evenodd" d="M200.028 4.12427H216.899C218.301 4.19119 219.62 4.86881 219.62 7.11917V13.9874C219.62 16.0788 218.8 17.1747 216.67 17.1747H204.444V19.0569H219.603V24.001H200.028C198.602 24.001 197.094 22.4199 197.094 20.3954V7.38687C197.077 6.9759 197.138 6.56543 197.276 6.17895C197.414 5.79246 197.626 5.43754 197.898 5.1345C198.171 4.83146 198.499 4.58625 198.864 4.4129C199.23 4.23956 199.625 4.14147 200.028 4.12427ZM204.444 9.0349H211.237C211.52 9.04939 211.787 9.17176 211.986 9.37779C212.185 9.58382 212.301 9.85851 212.311 10.1475V11.1681C212.299 11.4548 212.182 11.7265 211.983 11.9294C211.784 12.1323 211.518 12.2517 211.237 12.264H204.444V9.0349Z" fill="white"/>
<path d="M117.275 34.1318C116.909 33.8105 116.494 33.5532 116.046 33.3705C115.611 33.2029 115.15 33.1179 114.685 33.1196C114.268 33.1021 113.852 33.1742 113.464 33.3313C113.076 33.4883 112.724 33.7269 112.432 34.0314C111.88 34.6751 111.576 35.5015 111.576 36.3571C111.576 37.2126 111.88 38.0391 112.432 38.6827C112.703 38.9814 113.033 39.2174 113.4 39.3747C113.768 39.532 114.164 39.607 114.563 39.5946C115.051 39.5969 115.535 39.5031 115.988 39.3185C116.466 39.1163 116.906 38.8335 117.291 38.482V40.0714C116.925 40.3384 116.518 40.5419 116.087 40.6737C115.033 40.979 113.911 40.9351 112.883 40.5483C112.342 40.3364 111.85 40.0131 111.437 39.5986C111.024 39.1841 110.699 38.6873 110.482 38.139C110.045 36.99 110.045 35.7158 110.482 34.5668C110.702 34.0169 111.028 33.5183 111.442 33.1013C111.857 32.6843 112.349 32.3575 112.891 32.1408C113.45 31.9195 114.045 31.8088 114.645 31.8145C115.128 31.8134 115.608 31.8867 116.07 32.032C116.537 32.1887 116.979 32.4142 117.381 32.7013L117.275 34.1318ZM129.255 36.3654C129.262 35.51 128.938 34.6862 128.353 34.0733C128.073 33.7768 127.737 33.5411 127.365 33.3801C126.993 33.2192 126.594 33.1362 126.19 33.1363C125.785 33.1332 125.384 33.2128 125.01 33.3705C124.635 33.5356 124.295 33.7743 124.01 34.0733C123.712 34.3752 123.477 34.7369 123.322 35.1357C123.169 35.5325 123.091 35.9556 123.093 36.3822C123.086 36.8147 123.164 37.2443 123.322 37.6454C123.476 38.0357 123.705 38.3911 123.994 38.6911C124.273 38.9932 124.611 39.2325 124.986 39.3938C125.362 39.5544 125.766 39.6369 126.174 39.6364C126.581 39.6377 126.984 39.5545 127.358 39.392C127.733 39.2295 128.072 38.9911 128.353 38.6911C128.643 38.3911 128.871 38.0357 129.025 37.6454C129.185 37.2388 129.263 36.8035 129.255 36.3654ZM130.689 36.3654C130.695 36.9629 130.581 37.5553 130.353 38.1055C130.123 38.6549 129.788 39.1524 129.369 39.5695C128.944 39.99 128.443 40.3224 127.894 40.5483C127.348 40.7765 126.764 40.893 126.174 40.8913C125.578 40.8924 124.988 40.776 124.437 40.5483C123.892 40.318 123.395 39.986 122.97 39.5695C122.553 39.1506 122.222 38.6513 121.996 38.1005C121.77 37.5497 121.653 36.9585 121.653 36.3613C121.653 35.7641 121.77 35.1728 121.996 34.622C122.222 34.0712 122.553 33.5719 122.97 33.153C123.393 32.7344 123.891 32.4022 124.437 32.1743C124.99 31.9534 125.579 31.8399 126.174 31.8396C126.766 31.8383 127.352 31.9519 127.903 32.1743C128.449 32.4004 128.947 32.7328 129.369 33.153C129.791 33.5746 130.125 34.0781 130.353 34.6338C130.58 35.1813 130.694 35.7708 130.689 36.3654ZM135.31 40.6654V31.6974L140.677 36.9678C140.825 37.1184 140.972 37.2773 141.12 37.4446C141.267 37.6119 141.431 37.8043 141.595 38.0218V32.0404H142.865V40.9916L137.391 35.6209C137.239 35.4778 137.097 35.3241 136.965 35.1608C136.825 35.001 136.694 34.8334 136.572 34.6589V40.657L135.31 40.6654ZM147.847 40.6654V31.6974L153.214 36.9678L153.657 37.4446C153.825 37.6285 153.984 37.8212 154.132 38.0218V32.0404H155.402V40.9916L149.953 35.6293C149.803 35.484 149.661 35.3304 149.527 35.1692C149.387 35.0093 149.256 34.8418 149.134 34.6672V40.6654H147.847ZM160.384 40.6654V32.0404H165.104V33.2283H161.761V35.3867H165.104V36.6248H161.761V39.4105H165.104V40.6654H160.384ZM176.502 34.1318C176.137 33.8105 175.721 33.5532 175.273 33.3705C174.836 33.2021 174.372 33.117 173.905 33.1196C173.488 33.1036 173.072 33.1765 172.684 33.3335C172.296 33.4904 171.944 33.7281 171.651 34.0314C171.099 34.6751 170.795 35.5015 170.795 36.3571C170.795 37.2126 171.099 38.0391 171.651 38.6827C171.924 38.9812 172.255 39.217 172.624 39.3742C172.993 39.5314 173.39 39.6066 173.79 39.5946C174.27 39.5937 174.745 39.5 175.191 39.3185C175.668 39.1163 176.109 38.8335 176.494 38.482V40.0714C176.128 40.3384 175.721 40.5419 175.289 40.6737C174.233 40.9791 173.108 40.9352 172.077 40.5483C171.536 40.338 171.044 40.013 170.635 39.5946C170.223 39.1822 169.899 38.6864 169.685 38.139C169.248 36.99 169.248 35.7158 169.685 34.5668C169.903 34.017 170.229 33.5187 170.643 33.1028C171.053 32.6906 171.541 32.3688 172.077 32.1575C173.099 31.7607 174.22 31.7224 175.265 32.0488C175.729 32.2055 176.168 32.431 176.568 32.718L176.502 34.1318ZM183.983 33.2283V40.6654H182.607V33.2283H180.362V32.0404H186.22V33.2283H183.983ZM190.334 40.6654V32.0404H191.743V40.6654H190.334ZM203.961 36.3654C203.961 35.9409 203.881 35.5203 203.723 35.1273C203.569 34.7344 203.341 34.3763 203.051 34.0733C202.771 33.7743 202.434 33.5369 202.06 33.3758C201.687 33.2147 201.285 33.1332 200.88 33.1363C200.472 33.133 200.069 33.2126 199.692 33.3705C199.318 33.5378 198.978 33.7763 198.692 34.0733C198.401 34.3718 198.172 34.7276 198.02 35.119C197.866 35.5157 197.789 35.9388 197.791 36.3654C197.787 36.7895 197.865 37.2102 198.02 37.6036C198.174 37.9939 198.403 38.3493 198.692 38.6493C198.974 38.9515 199.314 39.1908 199.692 39.352C200.068 39.5132 200.472 39.5957 200.88 39.5946C201.282 39.5951 201.681 39.5125 202.052 39.352C202.428 39.1887 202.768 38.9497 203.051 38.6493C203.341 38.3493 203.569 37.9939 203.723 37.6036C203.881 37.2106 203.961 36.79 203.961 36.3654ZM205.395 36.3654C205.397 36.9625 205.283 37.5541 205.059 38.1055C204.816 38.6581 204.468 39.1558 204.035 39.5695C203.611 39.9881 203.113 40.3203 202.568 40.5483C202.021 40.7751 201.437 40.8915 200.847 40.8913C199.65 40.9 198.498 40.4248 197.643 39.5695C197.222 39.1577 196.887 38.6623 196.66 38.1139C196.212 36.9959 196.212 35.7433 196.66 34.6254C196.885 34.0706 197.219 33.5693 197.643 33.153C198.068 32.7319 198.569 32.3994 199.118 32.1743C200.232 31.728 201.47 31.728 202.584 32.1743C203.125 32.4013 203.618 32.7338 204.035 33.153C204.458 33.5743 204.795 34.0777 205.026 34.6338C205.261 35.1801 205.386 35.7689 205.395 36.3654ZM210.008 40.6654V31.6974L215.375 36.9678L215.826 37.4446C215.973 37.6119 216.129 37.8043 216.293 38.0218V32.0404H217.563V40.9916L212.089 35.6209C211.788 35.327 211.513 35.0049 211.27 34.6589V40.657L210.008 40.6654Z" fill="white"/>
<path d="M56.6462 35.7129H56.892C57.3896 35.7621 57.8908 35.6725 58.3424 35.4536C58.4703 35.3413 58.5693 35.1987 58.6307 35.0382C58.6922 34.8778 58.7141 34.7045 58.6948 34.5334C58.7147 34.3467 58.6901 34.1579 58.623 33.9831C58.556 33.8083 58.4484 33.6526 58.3096 33.5295C57.8752 33.2928 57.3824 33.191 56.892 33.2367H56.6462V35.7129ZM56.5397 36.8088V40.6737H55.2696V32.0404H57.187C57.6239 32.0276 58.0608 32.0641 58.4899 32.1492C58.7853 32.2117 59.0645 32.3371 59.3093 32.5172C59.5799 32.7368 59.7891 33.0254 59.9157 33.3538C60.0639 33.696 60.1367 34.0673 60.1287 34.4413C60.1618 35.0251 59.9872 35.6015 59.6371 36.0643C59.2569 36.4756 58.7393 36.7264 58.1867 36.767L61.0956 40.6905H59.5224L56.7118 36.8088H56.5397ZM64.9387 40.6737V32.0404H66.3727V40.6654L64.9387 40.6737ZM76.0172 36.2567H79.3604C79.3604 36.3152 79.3604 36.3905 79.3604 36.4993C79.3604 36.7837 79.3604 36.9678 79.3604 37.0682C79.3898 37.5861 79.3139 38.1046 79.1376 38.5912C78.9614 39.0778 78.6885 39.5219 78.3362 39.8957C77.5456 40.6062 76.5111 40.9673 75.46 40.8996C74.8294 40.9121 74.2019 40.8072 73.6081 40.5901C73.0721 40.3827 72.5859 40.0604 72.1823 39.6448C71.7873 39.223 71.483 38.7214 71.2892 38.1724C70.8518 37.012 70.8518 35.7272 71.2892 34.5668C71.5068 34.0171 71.8364 33.521 72.2561 33.1112C72.6805 32.6898 73.1893 32.3673 73.7474 32.1659C74.3153 31.9459 74.9182 31.8353 75.5256 31.8396C76.1409 31.829 76.7509 31.9576 77.3119 32.2161C77.8411 32.486 78.3034 32.875 78.6639 33.3538L77.6642 34.1234C77.4033 33.7995 77.0723 33.5418 76.6973 33.3705C76.3211 33.1994 75.9129 33.1138 75.501 33.1196C75.086 33.1042 74.6723 33.1765 74.286 33.332C73.8996 33.4875 73.5489 33.7227 73.2558 34.0231C72.963 34.3313 72.735 34.6972 72.5856 35.0986C72.4363 35.4999 72.3687 35.9282 72.3872 36.3571C72.3686 36.791 72.4359 37.2244 72.5851 37.6312C72.7344 38.038 72.9625 38.4099 73.2558 38.7245C73.5482 39.0287 73.8998 39.2669 74.2879 39.424C74.676 39.581 75.092 39.6534 75.5092 39.6364C76.1717 39.6766 76.827 39.4783 77.3611 39.0759C77.5827 38.8942 77.7591 38.6615 77.8759 38.3969C77.9927 38.1323 78.0465 37.8433 78.033 37.5534V37.4279H76.0336L76.0172 36.2567ZM83.8672 40.6737V32.0404H85.2438V35.2193H89.3983V32.0404H90.7749V40.6654H89.3983V36.4826H85.2438V40.6654L83.8672 40.6737ZM98.4856 33.2367V40.6737H97.1172V33.2283H94.8884V32.0404H100.739V33.2283L98.4856 33.2367Z" fill="white"/>
<path d="M22.0587 33.2283V40.6654H20.6821V33.2283H18.4369V32.0404H24.2875V33.2283H22.0587ZM28.3846 40.6654V32.0404H29.7612V35.2193H33.9157V32.0404H35.2923V40.6654H33.9157V36.4826H29.7612V40.6654H28.3846ZM40.2743 40.6654V32.0404H44.986V33.2283H41.6427V35.3867H44.986V36.6248H41.6427V39.4105H44.986V40.6654H40.2743Z" fill="white"/>
</g>
<defs>
<clipPath id="clip0_222_1916">
<rect width="236" height="41" fill="white"/>
</clipPath>
</defs>
</svg>
