<svg width="22" height="21" viewBox="0 0 22 21" fill="none" xmlns="http://www.w3.org/2000/svg">
<path d="M14.725 11.525L13.625 10.425C14.0584 9.24166 13.8334 8.25833 12.95 7.475C12.0667 6.69166 11.1084 6.49166 10.075 6.875L8.97505 5.775C9.25838 5.59166 9.57505 5.45833 9.92505 5.375C10.275 5.29166 10.6334 5.25 11 5.25C12.1834 5.25 13.1875 5.6625 14.0125 6.4875C14.8375 7.3125 15.25 8.31666 15.25 9.5C15.25 9.86666 15.2042 10.2292 15.1125 10.5875C15.0209 10.9458 14.8917 11.2583 14.725 11.525ZM17.95 14.75L16.95 13.75C17.7667 13.15 18.4792 12.4792 19.0875 11.7375C19.6959 10.9958 20.1417 10.25 20.425 9.5C19.5917 7.65 18.3417 6.1875 16.675 5.1125C15.0084 4.0375 13.2 3.5 11.25 3.5C10.55 3.5 9.83338 3.56666 9.10005 3.7C8.36672 3.83333 7.79172 3.99166 7.37505 4.175L6.22505 3C6.80838 2.73333 7.55422 2.5 8.46255 2.3C9.37088 2.1 10.2584 2 11.125 2C13.375 2 15.45 2.61666 17.35 3.85C19.25 5.08333 20.7 6.74166 21.7 8.825C21.75 8.90833 21.7834 9.00833 21.8 9.125C21.8167 9.24166 21.825 9.36666 21.825 9.5C21.825 9.63333 21.8167 9.7625 21.8 9.8875C21.7834 10.0125 21.75 10.1167 21.7 10.2C21.2667 11.1167 20.7334 11.9583 20.1 12.725C19.4667 13.4917 18.75 14.1667 17.95 14.75ZM18.85 19.85L15.2 16.275C14.6167 16.5083 13.9584 16.6875 13.225 16.8125C12.4917 16.9375 11.75 17 11 17C8.70005 17 6.59172 16.3833 4.67505 15.15C2.75838 13.9167 1.30005 12.2583 0.300049 10.175C0.250049 10.075 0.216715 9.97083 0.200049 9.8625C0.183382 9.75416 0.175049 9.63333 0.175049 9.5C0.175049 9.36666 0.187549 9.2375 0.212549 9.1125C0.237549 8.9875 0.266715 8.88333 0.300049 8.8C0.650049 8.05 1.09588 7.32083 1.63755 6.6125C2.17922 5.90416 2.81672 5.23333 3.55005 4.6L0.925049 1.975C0.775049 1.825 0.700049 1.65 0.700049 1.45C0.700049 1.25 0.775049 1.075 0.925049 0.924997C1.07505 0.774997 1.25422 0.699997 1.46255 0.699997C1.67088 0.699997 1.85005 0.774997 2.00005 0.924997L19.9 18.825C20.0334 18.9583 20.1 19.1208 20.1 19.3125C20.1 19.5042 20.0334 19.675 19.9 19.825C19.7667 19.9917 19.5959 20.075 19.3875 20.075C19.1792 20.075 19 20 18.85 19.85ZM4.57505 5.65C3.95838 6.1 3.36255 6.69166 2.78755 7.425C2.21255 8.15833 1.80005 8.85 1.55005 9.5C2.40005 11.35 3.67922 12.8125 5.38755 13.8875C7.09588 14.9625 9.03338 15.5 11.2 15.5C11.75 15.5 12.2917 15.4667 12.825 15.4C13.3584 15.3333 13.7584 15.2333 14.025 15.1L12.425 13.5C12.2417 13.5833 12.0167 13.6458 11.75 13.6875C11.4834 13.7292 11.2334 13.75 11 13.75C9.83338 13.75 8.83338 13.3417 8.00005 12.525C7.16672 11.7083 6.75005 10.7 6.75005 9.5C6.75005 9.25 6.77088 9 6.81255 8.75C6.85422 8.5 6.91672 8.275 7.00005 8.075L4.57505 5.65Z" fill="#667085"/>
</svg>
